<svg xmlns="http://www.w3.org/2000/svg" xmlns:xlink="http://www.w3.org/1999/xlink" width="308" height="312" viewBox="0 0 308 312" fill="none">
    <path d="M179.702 226.799C178.502 225.8 177.702 224.4 177.302 222.799L172.902 203.999C172.902 203.999 144.501 165.997 112 168.797C112 168.797 121.8 187.098 107.7 213.499C110.301 220.3 120.6 243.2 144.401 252.801C167.301 262.101 180.902 255.901 183.002 245.6C184.302 239 181.802 230.499 179.702 226.799Z"   fill="#FFFFFF" >
    </path>
    <path d="M108.403 214.904C116.999 203.604 116.399 186.102 116.099 172.501C116.099 172.101 116.099 171.401 115.899 171.001C114.4 167.801 109.702 169.801 111.002 173.001C112.001 175.401 112.901 178.101 113.201 180.702L113.201 183.302C113.101 190.303 112.601 197.303 111.102 204.203C110.302 207.504 109.103 210.904 107.204 213.804C106.604 214.604 107.803 215.505 108.403 214.904Z"   fill="#000000" >
    </path>
    <path d="M182.199 232.6C181.599 229.9 180.1 224.4 179.6 221.8C179.2 219.299 177.701 216.999 177.201 214.599C176.601 212.099 176.801 209.498 176.201 207.098C176.001 205.898 175.501 204.698 174.002 203.798C173.302 203.398 172.303 203.598 171.703 204.198C170.803 205.698 170.903 206.998 171.203 208.198C171.703 210.699 173.102 212.999 173.602 215.399C174.202 217.899 173.902 220.499 174.602 222.9C175.401 225.6 176.301 227.8 177.601 230.2C178.4 231.6 179 232.7 180.3 233.801C180.599 234.001 180.899 234.101 181.299 234.001C181.999 233.901 182.399 233.201 182.199 232.6Z"   fill="#000000" >
    </path>
    <path d="M177.2 222.9L175.1 213.7C159.2 211.7 144.1 207.4 131.3 196.1C146.5 223.2 162.1 229.2 181.2 230.2C180 229.2 177.6 224.5 177.2 222.9Z"   fill="#000000" >
    </path>
    <path d="M110.701 218C110.101 216.999 108.701 217.8 109.101 218.799C115.101 231.798 124.501 243.698 137.201 250.797C147.501 256.296 160.901 261.196 172.501 258.096C177.501 256.697 182.101 252.997 183.702 247.997C185.801 240.898 183.801 232.898 180.402 226.499C179.801 225.499 178.301 226.399 178.902 227.199C180.001 229.099 180.801 231.399 181.301 233.598C184.601 247.397 179.201 254.897 165.001 255.297C151.201 255.297 137.401 249.597 127.201 240.398C123.701 237.298 120.601 233.798 117.901 229.999C115.201 226.299 112.801 222.199 110.701 218Z"   fill="#000000" >
    </path>
    <path d="M219.105 106.399C214.305 84.2986 199.304 67.6986 170.004 62.0986C140.902 56.5986 101.6 62.3986 94.0009 111.999C89.3004 142.598 98.8004 159.9 106.701 168.5C112.401 174.8 117.702 168.9 122.101 176.2C125.501 181.9 121.302 191.6 126.902 197.1C128.902 199.1 135.702 202.4 139.802 205.5C141.002 206.4 144.902 211 145.603 211.4C163.403 222.8 183.004 226.6 199.204 213.1C204.605 208.6 202.505 198.9 205.705 193.1C208.905 187.3 213.605 179.6 215.105 173.3C218.406 159.6 217.405 152.4 217.405 141.098C217.405 118.599 220.905 114.799 219.105 106.399Z"   fill="#FFFFFF" >
    </path>
    <path d="M218.608 140.503C218.306 131.602 219.807 123.002 221.507 114.301C223.407 102.101 214.706 85.2016 205.706 77.1009C185.406 57.6011 139.906 52.6004 116.504 68.4004C90.9049 85.4015 86.2039 121.201 94.8047 148.702C96.805 155.102 99.8041 161.202 103.805 166.702C106.504 170.302 109.405 173.602 111.705 177.403C113.305 179.804 116.705 177.203 115.105 175.403L110.405 170.502C98.7045 159.803 94.0048 144.602 95.005 129.102C96.5039 103.201 103.505 76.1014 130.305 66.1C153.006 57.701 185.807 62.7001 203.107 80.3009C211.106 88.5015 216.506 99.7007 217.806 111.101C217.907 114.301 217.407 117.401 217.107 120.701C216.506 127.401 216.607 134.103 216.707 140.802C216.806 145.202 217.207 149.603 217.207 154.002C217.207 162.703 215.307 171.303 211.607 179.202C209.806 183.104 207.607 186.903 205.206 190.503C204.907 190.903 204.507 191.702 204.307 192.304C203.007 196.004 202.507 200.003 201.606 203.803C200.907 206.603 200.207 209.603 198.207 211.504C190.707 217.304 180.707 219.003 171.405 218.304C167.206 218.004 163.006 217.104 158.906 215.903C154.806 214.704 151.206 213.504 147.705 210.604C144.506 208.104 140.305 204.704 136.806 202.803C136.205 202.503 135.605 203.303 136.105 203.803C140.906 208.204 144.705 213.704 150.406 217.104C156.906 220.204 163.906 222.103 171.106 222.705C181.406 223.504 192.507 221.504 200.806 214.804C203.807 212.203 204.706 208.204 205.506 204.704C206.206 201.404 206.607 198.204 207.407 195.002C207.607 193.903 207.907 193.003 208.306 192.404C210.606 188.502 212.706 184.503 214.407 180.303C217.806 171.903 219.407 162.803 219.106 153.802C219.106 149.303 218.608 144.902 218.608 140.503Z"   fill="#000000" >
    </path>
    <path d="M105.8 132.4C93.2003 134 88.8004 164.2 117.4 172.6L123.5 145.6C123.5 145.6 120.4 130.6 105.8 132.4Z"   fill="#FFFFFF" >
    </path>
    <path d="M115.503 152.701C116.603 148.001 115.803 141.8 109.903 141.4C105.703 140.9 102.804 145.2 104.104 149.101C104.303 149.601 105.104 149.601 105.204 149.101C105.204 149.001 105.304 148.701 105.304 148.601C105.603 147 106.603 145 108.203 144.7C109.703 144.6 111.703 145.1 112.003 147C112.503 149.001 112.203 151.301 112.103 153.301C112.203 156.002 113.803 158.202 116.103 159.502C116.703 159.902 117.503 159.102 117.003 158.502L116.803 158.202C115.703 156.502 114.903 154.702 115.503 152.701Z"   fill="#000000" >
    </path>
    <path d="M195.407 135.005C194.907 142.004 196.907 149.103 200.205 155.302C200.905 156.502 201.305 157.702 201.005 159.102C200.305 163.701 196.207 166.701 191.708 168.101C191.008 168.301 191.108 169.401 191.908 169.401C199.006 169.701 207.003 162.502 203.904 154.902C200.405 148.703 197.606 142.104 196.107 135.005C196.107 134.505 195.407 134.505 195.407 135.005Z"   fill="#000000" >
    </path>
    <path d="M109.001 134.299C115.701 134.199 120.7 139.8 123 145.701C123.2 146.301 124.1 146.101 124.1 145.5C123.701 142.1 122.4 138.7 120.101 135.899C117.501 132.599 113.501 130.499 109.301 130.299C108.501 130.099 107.301 130.299 106.501 130.299C104.002 130.299 101.502 131.499 99.7016 133.099C91.6022 141.1 93.0021 154.802 99.8017 163.003C104.201 168.503 110.601 171.803 117.301 173.204C118.001 173.304 118.301 172.203 117.601 172.003C114.501 170.803 111.601 169.403 109.001 167.603C106.401 165.803 104.102 163.602 102.302 161.102C97.102 154.001 96.0019 142.7 102.402 136.3C103.701 135.099 105.101 134.499 106.801 134.399C107.401 134.399 108.401 134.199 109.001 134.299Z"   fill="#000000" >
    </path>
    <path d="M144.098 145.797C144.198 147.998 143.898 151.798 144.398 153.798C145.398 157.999 149.398 161.199 153.698 161.199L155.798 161.199C158.698 161.199 173.998 161.399 176.999 161.399C182.198 161.599 186.999 157.098 187.099 151.898C187.199 149.198 187.099 146.297 187.099 143.497C187.698 137.397 183.099 131.796 176.899 131.996C172.598 132.096 158.198 132.196 153.698 132.296C148.298 132.296 143.698 137.197 144.098 142.597C144.098 143.297 144.098 145.097 144.098 145.797ZM141.298 141.397C141.198 143.897 141.298 147.398 141.198 149.898C140.498 157.399 146.198 163.999 153.798 163.899C158.198 163.799 172.398 163.699 176.999 163.599C183.298 163.699 188.899 158.299 188.999 151.998L188.999 143.497C188.999 142.197 189.099 140.597 188.698 139.097C187.498 133.796 182.398 129.796 176.999 129.896C175.698 129.896 171.998 129.796 170.698 129.796L153.798 129.595C147.298 129.395 141.498 134.896 141.298 141.397Z" fill-rule="evenodd"  fill="#000000" >
    </path>
    <path d="M200.105 146.949C201.439 151.529 203.223 155.925 205.865 159.808C206.64 159.896 207.596 159.896 208.204 159.896C211.204 159.996 214.705 160.196 217.705 160.196C220.505 160.196 223.205 158.096 223.805 155.296C224.005 154.496 224.005 153.097 224.005 152.296C224.005 147.997 224.105 143.797 223.905 139.497C224.105 135.698 221.205 132.298 217.305 132.498L209.404 132.598C207.204 132.698 204.604 132.298 202.704 133.598C200.904 134.798 200.104 136.997 200.204 139.097C200.204 141.681 200.204 144.364 200.105 146.949ZM200.004 146.597L200.104 146.997C200.104 146.981 200.105 146.965 200.105 146.949C200.071 146.832 200.037 146.714 200.004 146.597ZM197.003 136.898C196.704 140.297 197.003 143.697 197.003 147.097C198.304 152.396 200.504 157.496 203.604 162.096C203.804 162.396 204.204 162.696 204.604 162.696C205.104 162.696 205.904 162.796 206.404 162.696C207.404 162.696 210.104 162.496 211.204 162.496C213.304 162.396 215.404 162.396 217.605 162.296C222.805 161.896 225.805 157.396 225.305 152.396C225.305 148.097 225.205 143.897 225.405 139.597C226.305 134.598 222.605 129.498 217.305 129.498C214.504 129.498 208.104 129.298 205.304 129.398C201.204 129.498 197.604 132.898 197.003 136.898ZM205.865 159.808C205.622 159.78 205.396 159.744 205.204 159.696L206.204 160.296C206.09 160.134 205.977 159.971 205.865 159.808Z" fill-rule="evenodd"  fill="#000000" >
    </path>
    <path d="M187.098 139.001C185.498 139.801 186.598 142.298 188.298 141.599C190.098 140.9 191.898 140.5 193.798 140.3C195.698 140.2 197.598 140 199.198 141.399C200.498 142.498 202.098 140.6 200.798 139.501L199.498 138.402C198.598 137.603 197.598 137.303 196.598 137.203C193.598 137.003 190.598 137.503 187.898 138.702L187.098 139.001Z"   fill="#000000" >
    </path>
    <path d="M143.701 140.6C144.001 140 143.501 139.3 142.801 139.3L119.601 140.1C117.601 140.2 117.701 143 119.701 143.1C125.501 144 131.401 144.1 137.201 144.1L140.101 144C141.401 144.1 142.201 143.9 142.901 142.3L143.701 140.6Z"   fill="#000000" >
    </path>
    <path d="M185.402 100.302C188.502 101.102 191.803 101.801 195.302 102.302C195.903 102.402 196.502 102.402 197.103 102.402C203.604 102.402 209.803 98.1009 214.504 98.9018C216.104 99.2015 217.304 100.402 217.803 102.002C218.203 103.501 218.604 105.001 219.004 106.602C220.603 113.702 224.304 170.7 224.903 165.401C226.804 150.801 261.404 102.102 224.703 82.9026C226.603 77.4025 225.804 70.4021 219.303 61.6016C197.203 31.803 126.002 43.4027 126.002 43.4027C126.002 43.4027 133.501 45.4026 142.001 49.5023C118.001 47.4025 100.9 52.6029 85.6003 51.0026C85.6003 51.0026 92.5003 59.0022 108.301 65.5015C92.7999 71.2014 80.2999 84.0017 69.2998 112.601C69.2998 112.601 76.8008 107.902 89.1011 103.701C81.9996 130.001 91.6996 150.001 98.901 162.5C103.201 170.3 105.601 173.8 108.701 179.3C113.001 187 115.401 194.9 115.401 194.9C116.402 177.101 114.001 171.501 114.001 171.501C88.9995 161.901 93.5008 134.001 105.701 132.4C118.501 130.802 122.501 142.2 123.202 145.001C125.601 142.2 123.402 131.501 123.801 120.601C125.601 149.4 141.502 178 141.502 178C141.502 178 137.501 113.201 152.901 100.001C153.203 99.7011 153.602 99.4014 153.902 99.2015C150.602 118.002 159.002 126.401 159.002 126.401C159.601 107.902 164.103 99.1016 169.803 95.6014C174.702 97.1017 179.802 98.9018 185.402 100.302Z"   fill="#000000" >
    </path>
</svg>
