<?xml version="1.0" standalone="no"?><!DOCTYPE svg PUBLIC "-//W3C//DTD SVG 1.1//EN" "http://www.w3.org/Graphics/SVG/1.1/DTD/svg11.dtd"><svg t="1701101834653" class="icon" viewBox="0 0 1024 1024" version="1.1" xmlns="http://www.w3.org/2000/svg" p-id="4269" xmlns:xlink="http://www.w3.org/1999/xlink" width="200" height="200"><path d="M661.333333 68.266667C554.666667 29.866667 443.733333 34.133333 341.333333 72.533333l320 324.266667V68.266667zM298.666667 93.866667C204.8 145.066667 128 226.133333 85.333333 328.533333h452.266667C533.333333 328.533333 298.666667 93.866667 298.666667 93.866667z m401.066666-8.533334v452.266667l234.666667-226.133333C883.2 209.066667 802.133333 128 699.733333 85.333333zM68.266667 366.933333c-38.4 102.4-34.133333 217.6 4.266666 320l320-320H68.266667z m256 576V490.666667L89.6 725.333333c51.2 93.866667 136.533333 174.933333 234.666667 217.6z m392.533333-12.8c98.133333-46.933333 179.2-128 221.866667-226.133333H490.666667l226.133333 226.133333zM951.466667 341.333333l-320 324.266667h328.533333c29.866667-106.666667 29.866667-221.866667-8.533333-324.266667zM362.666667 955.733333c106.666667 34.133333 217.6 34.133333 320-4.266666l-320-320v324.266666z" p-id="4270"></path></svg>